<svg width="9" height="9" viewBox="0 0 9 9" fill="none" xmlns="http://www.w3.org/2000/svg">
<path d="M7 5C8.10457 5 9 5.89543 9 7C9 8.10457 8.10457 9 7 9C6.24614 9 5.58988 8.5828 5.24902 7.9668C5.16927 7.98728 5.08614 8 5 8H1C0.447715 8 0 7.55228 0 7C0 6.44772 0.447715 6 1 6H5C5.08606 6 5.16934 6.01178 5.24902 6.03223C5.58999 5.41663 6.24644 5 7 5ZM7 6C6.44772 6 6 6.44772 6 7C6 7.55228 6.44772 8 7 8C7.55228 8 8 7.55228 8 7C8 6.44772 7.55228 6 7 6Z" fill="white"/>
<path d="M2 0C0.895431 0 0 0.895431 0 2C0 3.10457 0.895431 4 2 4C2.75386 4 3.41012 3.5828 3.75098 2.9668C3.83073 2.98728 3.91386 3 4 3H8C8.55228 3 9 2.55228 9 2C9 1.44772 8.55228 1 8 1H4C3.91394 1 3.83066 1.01178 3.75098 1.03223C3.41001 0.416629 2.75356 0 2 0ZM2 1C2.55228 1 3 1.44772 3 2C3 2.55228 2.55228 3 2 3C1.44772 3 1 2.55228 1 2C1 1.44772 1.44772 1 2 1Z" fill="white"/>
</svg>
