<svg width="14" height="14" viewBox="0 0 14 14" fill="none" xmlns="http://www.w3.org/2000/svg">
<path d="M14 10C14 12.14 12.3194 13.8879 10.2061 13.9951L10 14H4L3.79395 13.9951C1.7488 13.8913 0.108652 12.2512 0.00488281 10.2061L0 10V9C0 8.44772 0.447715 8 1 8C1.55228 8 2 8.44772 2 9V10C2 11.1046 2.89543 12 4 12H10C11.1046 12 12 11.1046 12 10V9C12 8.44772 12.4477 8 13 8C13.5523 8 14 8.44772 14 9V10Z" fill="black"/>
<rect x="6" width="2" height="8" rx="1" fill="black"/>
<path d="M4.03033 6.591C3.73744 6.29811 3.73744 5.82323 4.03033 5.53034C4.32322 5.23745 4.7981 5.23745 5.09099 5.53034L7.38909 7.82844C7.77961 8.21896 7.77961 8.85213 7.38909 9.24265L7.03553 9.5962L4.03033 6.591Z" fill="black"/>
<path d="M8.98042 5.53032C9.27331 5.23743 9.74817 5.23743 10.0411 5.53032C10.334 5.82321 10.3339 6.2981 10.041 6.59098L7.03553 9.5962L6.68209 9.24264C6.29167 8.8521 6.29172 8.21902 6.6822 7.82854L8.98042 5.53032Z" fill="black"/>
</svg>
